HIERARCHY
ROOT Hips
{
	OFFSET 0.000000 0.000000 0.000000
	CHANNELS 6 Xposition Yposition Zposition Zrotation Yrotation Xrotation 
	JOINT LHipJoint
	{
		OFFSET 0.000000 0.000000 0.000000
		CHANNELS 3 Zrotation Yrotation Xrotation
		JOINT LeftUpLeg
		{
			OFFSET 1.363060 -1.794630 0.839290
			CHANNELS 3 Zrotation Yrotation Xrotation
			JOINT LeftLeg
			{
				OFFSET 2.448110 -6.726130 0.000000
				CHANNELS 3 Zrotation Yrotation Xrotation
				JOINT LeftFoot
				{
					OFFSET 2.562200 -7.039590 0.000000
					CHANNELS 3 Zrotation Yrotation Xrotation
					JOINT LeftToeBase
					{
						OFFSET 0.157640 -0.433110 2.322550
						CHANNELS 3 Zrotation Yrotation Xrotation
						End Site
						{
							OFFSET 0.000000 0.000000 0.000000
						}
					}
				}
			}
		}
	}
	JOINT RHipJoint
	{
		OFFSET 0.000000 0.000000 0.000000
		CHANNELS 3 Zrotation Yrotation Xrotation
		JOINT RightUpLeg
		{
			OFFSET -1.305520 -1.794630 0.839290
			CHANNELS 3 Zrotation Yrotation Xrotation
			JOINT RightLeg
			{
				OFFSET -2.542530 -6.985550 0.000000
				CHANNELS 3 Zrotation Yrotation Xrotation
				JOINT RightFoot
				{
					OFFSET -2.568260 -7.056230 0.000000
					CHANNELS 3 Zrotation Yrotation Xrotation
					JOINT RightToeBase
					{
						OFFSET -0.164730 -0.452590 2.363150
						CHANNELS 3 Zrotation Yrotation Xrotation
						End Site
						{
							OFFSET 0.000000 0.000000 0.000000
						}
					}
				}
			}
		}
	}
	JOINT LowerBack
	{
		OFFSET 0.000000 0.000000 0.000000
		CHANNELS 3 Zrotation Yrotation Xrotation
		JOINT Spine
		{
			OFFSET 0.028270 2.035590 -0.193380
			CHANNELS 3 Zrotation Yrotation Xrotation
			JOINT Spine1
			{
				OFFSET 0.056720 2.048850 -0.042750
				CHANNELS 3 Zrotation Yrotation Xrotation
				JOINT Neck
				{
					OFFSET 0.000000 0.000000 0.000000
					CHANNELS 3 Zrotation Yrotation Xrotation
					JOINT Neck1
					{
						OFFSET -0.054170 1.746240 0.172020
						CHANNELS 3 Zrotation Yrotation Xrotation
						JOINT Head
						{
							OFFSET 0.104070 1.761360 -0.123970
							CHANNELS 3 Zrotation Yrotation Xrotation
							End Site
							{
								OFFSET 0.000000 0.000000 0.000000
							}
						}
					}
				}
				JOINT LeftShoulder
				{
					OFFSET 0.000000 0.000000 0.000000
					CHANNELS 3 Zrotation Yrotation Xrotation
					JOINT LeftArm
					{
						OFFSET 3.362410 1.200890 -0.311210
						CHANNELS 3 Zrotation Yrotation Xrotation
						JOINT LeftForeArm
						{
							OFFSET 4.983000 -0.000000 -0.000000
							CHANNELS 3 Zrotation Yrotation Xrotation
							JOINT LeftHand
							{
								OFFSET 3.483560 -0.000000 -0.000000
								CHANNELS 3 Zrotation Yrotation Xrotation
								JOINT LeftFingerBase
								{
									OFFSET 0.000000 0.000000 0.000000
									CHANNELS 3 Zrotation Yrotation Xrotation
									JOINT LeftHandIndex1
									{
										OFFSET 0.715260 -0.000000 -0.000000
										CHANNELS 3 Zrotation Yrotation Xrotation
										End Site
										{
											OFFSET 0.000000 0.000000 0.000000
										}
									}
								}
								JOINT LThumb
								{
									OFFSET 0.000000 0.000000 0.000000
									CHANNELS 3 Zrotation Yrotation Xrotation
									End Site
									{
										OFFSET 0.000000 0.000000 0.000000
									}
								}
							}
						}
					}
				}
				JOINT RightShoulder
				{
					OFFSET 0.000000 0.000000 0.000000
					CHANNELS 3 Zrotation Yrotation Xrotation
					JOINT RightArm
					{
						OFFSET -3.136600 1.374050 -0.404650
						CHANNELS 3 Zrotation Yrotation Xrotation
						JOINT RightForeArm
						{
							OFFSET -5.241900 -0.000000 -0.000000
							CHANNELS 3 Zrotation Yrotation Xrotation
							JOINT RightHand
							{
								OFFSET -3.444170 -0.000000 -0.000000
								CHANNELS 3 Zrotation Yrotation Xrotation
								JOINT RightFingerBase
								{
									OFFSET 0.000000 0.000000 0.000000
									CHANNELS 3 Zrotation Yrotation Xrotation
									JOINT RightHandIndex1
									{
										OFFSET -0.622530 -0.000000 -0.000000
										CHANNELS 3 Zrotation Yrotation Xrotation
										End Site
										{
											OFFSET 0.000000 0.000000 0.000000
										}
									}
								}
								JOINT RThumb
								{
									OFFSET 0.000000 0.000000 0.000000
									CHANNELS 3 Zrotation Yrotation Xrotation
									End Site
									{
										OFFSET 0.000000 0.000000 0.000000
									}
								}
							}
						}
					}
				}
			}
		}
	}
}
MOTION
Frames: 10
Frame Time: 0.008333
29.080538 16.609290 -2.236157 -179.387937 -45.197333 -166.152872 4.692631 -2.419615 -3.365521 -25.102321 -6.433975 -41.318569 3.696114 16.027973 40.663900 -0.299500 3.944028 -3.008653 0.000400 -0.125900 -0.346000 -6.178437 1.289056 -2.893966 26.951205 2.577326 -22.509757 -8.597106 -19.012893 57.339875 0.671246 -7.849703 -16.791397 -0.928900 6.139900 -17.191000 4.062518 0.008867 25.853542 1.090005 -1.239641 2.718744 -3.113534 -0.922283 6.051888 0.045685 2.892253 8.051734 4.514325 1.882035 -6.224428 -0.842700 -0.103600 -9.783300 -0.931660 -2.981776 2.547451 -74.994835 -19.569908 30.470335 65.421706 -54.452686 -45.366574 -0.346139 -1.306001 -14.236031 19.009610 8.380524 3.407500 -7.125000 0.000000 0.000000 -6.400400 40.068100 0.781800 3.359995 1.408789 1.984899 72.018001 13.368173 38.465904 -72.052890 56.687987 -48.641452 1.128597 -0.011451 8.563591 -29.791045 -5.939323 3.609800 7.125000 0.000000 0.000000 -3.550700 -36.999700 -0.699900 
29.048493 16.610469 -2.249875 -179.404826 -45.185989 -166.123542 4.696022 -2.415226 -3.363184 -25.185421 -6.404990 -41.222460 3.701029 16.030863 40.687153 -0.281541 3.856780 -3.150891 0.000100 -0.063100 -0.173400 -6.196032 1.284996 -2.898046 26.833747 2.559844 -22.627270 -8.709483 -19.076290 57.658967 0.715096 -7.870073 -16.378098 -0.929600 6.142100 -17.197100 4.059803 -0.004954 25.851192 1.089561 -1.259777 2.721164 -3.114561 -0.932137 6.059329 0.037079 2.898826 8.058964 4.509807 1.889790 -6.223333 -0.844200 -0.098800 -9.784300 -0.934244 -2.982129 2.548231 -75.001940 -19.607818 30.499748 65.401813 -54.446054 -45.342252 -0.346239 -1.305357 -14.249325 19.003813 8.370861 3.402700 -7.125000 0.000000 0.000000 -6.403700 40.056500 0.784100 3.360311 1.408854 1.985212 72.003708 13.375262 38.458445 -72.013088 56.681456 -48.608363 1.129164 -0.010473 8.562485 -29.789226 -5.953936 3.618900 7.125000 0.000000 0.000000 -3.549500 -37.017800 -0.698100 
29.016984 16.611647 -2.263593 -179.412588 -45.172664 -166.100120 4.699614 -2.411082 -3.361473 -25.261074 -6.371587 -41.129910 3.706127 16.033428 40.710007 -0.264013 3.772453 -3.294633 -0.000000 -0.014000 -0.038500 -6.214487 1.281404 -2.901748 26.721301 2.557530 -22.747849 -8.824282 -19.141655 57.984691 0.760471 -7.894306 -15.949144 -0.932900 6.152500 -17.227600 4.061748 -0.016462 25.842378 1.089304 -1.276386 2.724499 -3.116627 -0.939929 6.071196 0.030054 2.905263 8.068771 4.505983 1.897566 -6.225876 -0.845300 -0.094600 -9.788200 -0.936987 -2.982160 2.549241 -75.011192 -19.649489 30.535031 65.375060 -54.438062 -45.310363 -0.346509 -1.304367 -14.256054 18.998576 8.357794 3.396800 -7.125000 0.000000 0.000000 -6.406000 40.041200 0.786800 3.361383 1.408239 1.985764 71.983704 13.382583 38.451888 -71.979045 56.676091 -48.580717 1.129346 -0.009486 8.556935 -29.784476 -5.959881 3.622300 7.125000 0.000000 0.000000 -3.545500 -37.025500 -0.696700 
28.986333 16.612612 -2.277096 -179.414485 -45.168356 -166.073905 4.703369 -2.407375 -3.359893 -25.331334 -6.343553 -41.044222 3.711294 16.036311 40.732816 -0.247238 3.693149 -3.438908 0.000000 0.011100 0.030400 -6.234317 1.278239 -2.905131 26.613048 2.563032 -22.883756 -8.943092 -19.209920 58.321515 0.806274 -7.920096 -15.507533 -0.936400 6.163900 -17.260800 4.068337 -0.030084 25.827835 1.089720 -1.294146 2.727295 -3.118095 -0.948011 6.083142 0.025513 2.913046 8.079308 4.502252 1.907146 -6.231862 -0.846900 -0.090300 -9.794500 -0.939271 -2.982431 2.550476 -75.020531 -19.691790 30.572565 65.353962 -54.431305 -45.283565 -0.346785 -1.303420 -14.267575 18.995224 8.345544 3.391500 -7.125000 0.000000 0.000000 -6.406600 40.026800 0.789100 3.362528 1.407337 1.986385 71.962381 13.392338 38.445737 -71.946099 56.670720 -48.554119 1.129249 -0.008646 8.547638 -29.777671 -5.958120 3.620700 7.125000 0.000000 0.000000 -3.539600 -37.023900 -0.695700 
28.956646 16.613469 -2.290386 -179.410802 -45.156364 -166.046119 4.707706 -2.404002 -3.359048 -25.395956 -6.309666 -40.969237 3.716315 16.038680 40.754336 -0.231492 3.618910 -3.583698 0.000000 0.025000 0.068600 -6.255554 1.276066 -2.907918 26.505946 2.591237 -23.035304 -9.066811 -19.282588 58.672704 0.853761 -7.951113 -15.046618 -0.939200 6.172900 -17.287000 4.071401 -0.038271 25.808542 1.089588 -1.304906 2.729845 -3.119828 -0.952708 6.095766 0.025366 2.920282 8.087968 4.499574 1.916418 -6.240230 -0.848900 -0.087100 -9.801700 -0.941160 -2.982788 2.551902 -75.025017 -19.736574 30.613512 65.337101 -54.425571 -45.260396 -0.346783 -1.302734 -14.283426 18.986688 8.335535 3.386100 -7.125000 0.000000 0.000000 -6.412200 40.014800 0.791700 3.363688 1.406236 1.986988 71.944017 13.401455 38.436795 -71.919992 56.666486 -48.533841 1.129147 -0.007938 8.538620 -29.772752 -5.954181 3.618000 7.125000 0.000000 0.000000 -3.535200 -37.019700 -0.695200 
28.927602 16.614220 -2.303568 -179.399708 -45.139543 -166.016712 4.712466 -2.400973 -3.358712 -25.452402 -6.274804 -40.900841 3.720969 16.040443 40.774148 -0.215353 3.544196 -3.731419 0.000100 0.047700 0.131000 -6.278528 1.274753 -2.910109 26.400251 2.639541 -23.204965 -9.196794 -19.360137 59.041799 0.902161 -7.983048 -14.563074 -0.939400 6.173500 -17.288600 4.074660 -0.044019 25.784059 1.089455 -1.311912 2.731625 -3.121451 -0.955570 6.109091 0.028847 2.926887 8.089841 4.495598 1.925128 -6.247748 -0.852600 -0.084500 -9.807000 -0.942226 -2.982926 2.553237 -75.026787 -19.778680 30.653620 65.332234 -54.422818 -45.248882 -0.346944 -1.301898 -14.303429 18.987344 8.320820 3.380800 -7.125000 0.000000 0.000000 -6.408900 39.998300 0.794000 3.365145 1.405198 1.987413 71.926815 13.413754 38.429145 -71.895267 56.662274 -48.514613 1.128872 -0.007636 8.529451 -29.769644 -5.942642 3.610800 7.125000 0.000000 0.000000 -3.532300 -37.006300 -0.695700 
28.898987 16.615077 -2.316536 -179.386789 -45.110292 -165.989661 4.717470 -2.397899 -3.358798 -25.509794 -6.232540 -40.830936 3.724923 16.040673 40.790042 -0.200931 3.478225 -3.881715 0.000100 0.062800 0.172500 -6.302855 1.274222 -2.911910 26.287173 2.707734 -23.386919 -9.334491 -19.442561 59.431897 0.951749 -8.015756 -14.048347 -0.936100 6.162900 -17.257700 4.070185 -0.044770 25.762821 1.088850 -1.313514 2.733034 -3.119917 -0.956474 6.120557 0.030094 2.933874 8.087616 4.492587 1.934064 -6.254150 -0.855600 -0.081700 -9.810600 -0.942854 -2.983218 2.554469 -75.028671 -19.817411 30.691865 65.337555 -54.422483 -45.247279 -0.347225 -1.300881 -14.321442 18.994068 8.304060 3.375800 -7.125000 0.000000 0.000000 -6.400100 39.979900 0.795800 3.366392 1.404260 1.987622 71.910887 13.423836 38.424279 -71.877104 56.659243 -48.500629 1.128745 -0.007316 8.522837 -29.769898 -5.934855 3.606400 7.125000 0.000000 0.000000 -3.532400 -36.997700 -0.696500 
28.870694 16.616149 -2.329290 -179.375184 -45.074928 -165.962963 4.722656 -2.394912 -3.359013 -25.567001 -6.192440 -40.756496 3.727797 16.039714 40.801621 -0.187003 3.415918 -4.031809 0.000200 0.093800 0.257800 -6.328702 1.274143 -2.913441 26.164701 2.788169 -23.583889 -9.481532 -19.529895 59.847014 1.003447 -8.052484 -13.497036 -0.929900 6.142800 -17.199400 4.061794 -0.043664 25.747306 1.088064 -1.312803 2.733700 -3.116217 -0.956862 6.128215 0.029353 2.942235 8.081428 4.489270 1.944480 -6.258289 -0.858700 -0.077900 -9.811800 -0.942882 -2.983762 2.555482 -75.033315 -19.850438 30.729195 65.354462 -54.425061 -45.256385 -0.347632 -1.299486 -14.337464 19.007707 8.282139 3.370100 -7.125000 0.000000 0.000000 -6.384400 39.956400 0.797500 3.367313 1.403719 1.987624 71.894656 13.431568 38.421278 -71.865676 56.657094 -48.492365 1.128904 -0.006711 8.517606 -29.773015 -5.935582 3.607600 7.125000 0.000000 0.000000 -3.535100 -36.999500 -0.696900 
28.842507 16.617435 -2.341614 -179.370800 -45.035469 -165.937583 4.727868 -2.391869 -3.359141 -25.629222 -6.155706 -40.671449 3.729230 16.037197 40.807919 -0.173258 3.355131 -4.179793 0.000600 0.151900 0.417300 -6.355937 1.274109 -2.914915 26.027784 2.875052 -23.792761 -9.639252 -19.622112 60.290562 1.053308 -8.079158 -12.911469 -0.914800 6.094400 -17.058500 4.049404 -0.041457 25.742244 1.087031 -1.311096 2.733737 -3.111060 -0.957224 6.130496 0.027804 2.950931 8.073233 4.484194 1.955439 -6.259730 -0.863000 -0.073500 -9.810500 -0.942210 -2.984559 2.556244 -75.043851 -19.875736 30.767676 65.383183 -54.430859 -45.276216 -0.347840 -1.297860 -14.349914 19.019171 8.259245 3.363600 -7.125000 0.000000 0.000000 -6.370700 39.931500 0.799700 3.368013 1.403789 1.987437 71.876263 13.434329 38.418428 -71.861058 56.656010 -48.490449 1.129163 -0.005847 8.514029 -29.776976 -5.941221 3.612000 7.125000 0.000000 0.000000 -3.538700 -37.007200 -0.696900 
28.815071 16.618721 -2.353511 -179.371031 -45.003761 -165.906768 4.733250 -2.389348 -3.359180 -25.690927 -6.132434 -40.590725 3.729446 16.034348 40.809942 -0.162636 3.309872 -4.311441 0.000800 0.181700 0.499200 -6.385579 1.274515 -2.916177 25.881765 2.966191 -24.031883 -9.809537 -19.720891 60.767828 1.106575 -8.116739 -12.287970 -0.898300 6.040400 -16.901800 4.035186 -0.042321 25.741437 1.086638 -1.312541 2.732374 -3.101502 -0.959464 6.126883 0.023254 2.961080 8.063972 4.479264 1.967420 -6.262315 -0.866900 -0.068500 -9.809600 -0.940605 -2.986094 2.556862 -75.061102 -19.895236 30.804405 65.423252 -54.439379 -45.306472 -0.348364 -1.295637 -14.353590 19.040159 8.232071 3.357100 -7.125000 0.000000 0.000000 -6.348000 39.902300 0.801400 3.368186 1.404252 1.987136 71.854974 13.437728 38.416531 -71.859720 56.654997 -48.491616 1.129764 -0.004591 8.510272 -29.784655 -5.955586 3.622500 7.125000 0.000000 0.000000 -3.545500 -37.025800 -0.696700 
